<svg width="120" height="40" viewBox="0 0 120 40" fill="none" xmlns="http://www.w3.org/2000/svg">
  <path d="M20 0C8.954 0 0 8.954 0 20C0 31.046 8.954 40 20 40C31.046 40 40 31.046 40 20C40 8.954 31.046 0 20 0ZM20 36C11.163 36 4 28.837 4 20C4 11.163 11.163 4 20 4C28.837 4 36 11.163 36 20C36 28.837 28.837 36 20 36Z" fill="#4CAF50"/>
  <path d="M20 8C14.477 8 10 12.477 10 18C10 23.523 14.477 28 20 28C25.523 28 30 23.523 30 18C30 12.477 25.523 8 20 8ZM20 24C16.686 24 14 21.314 14 18C14 14.686 16.686 12 20 12C23.314 12 26 14.686 26 18C26 21.314 23.314 24 20 24Z" fill="#4CAF50"/>
  <path d="M20 16C18.895 16 18 16.895 18 18C18 19.105 18.895 20 20 20C21.105 20 22 19.105 22 18C22 16.895 21.105 16 20 16Z" fill="#4CAF50"/>
  <path d="M48 14H52V26H48V14Z" fill="#4CAF50"/>
  <path d="M54 14H58L62 22L66 14H70V26H66V18L62 26H58V14Z" fill="#4CAF50"/>
  <path d="M72 14H84V18H76V18.5H82V22H76V22.5H84V26H72V14Z" fill="#4CAF50"/>
  <path d="M86 14H90V22.5H96V26H86V14Z" fill="#4CAF50"/>
  <path d="M98 14H102V26H98V14Z" fill="#4CAF50"/>
  <path d="M104 14H108L112 22L116 14H120V26H116V18L112 26H108V14Z" fill="#4CAF50"/>
</svg>
